<svg width="27" height="22" viewBox="0 0 27 22" fill="none" xmlns="http://www.w3.org/2000/svg">
<path d="M25.5659 12.2673H21.9414V8.78392H25.5659C26.1105 8.78392 26.552 8.34288 26.552 7.79816C26.552 7.25338 26.1105 6.81208 25.5659 6.81208H21.9414V1.97863C21.9414 1.27307 21.802 0.755209 21.5271 0.43975C21.2659 0.139646 20.9225 0 20.4469 0C19.9931 0 19.6626 0.138682 19.4064 0.436914C19.1347 0.752695 18.9969 1.27152 18.9969 1.97895V6.81267H12.179L9.28006 2.42598C9.03196 2.03449 8.79868 1.66777 8.57215 1.31577C8.36819 0.99876 8.16926 0.740656 7.98135 0.547935C7.81501 0.37731 7.62545 0.245262 7.40373 0.143765C7.19452 0.0482606 6.92856 0.000321052 6.6139 0.000321052C6.21257 0.000321052 5.84826 0.110272 5.49941 0.336166C5.1542 0.559599 4.91557 0.83584 4.76983 1.18073C4.6419 1.50849 4.57422 2.01073 4.57422 2.65904V6.81235H0.985705C0.441194 6.8124 0 7.2537 0 7.79842C0 8.34315 0.441194 8.78418 0.985758 8.78418H4.57427V12.268H0.985758C0.441194 12.268 0 12.7092 0 13.2541C0 13.7986 0.441194 14.2395 0.985758 14.2395H4.57427V19.7581C4.57427 20.4428 4.71814 20.9554 5.00311 21.2811C5.27411 21.5917 5.61771 21.7359 6.08432 21.7359C6.5345 21.7359 6.87543 21.5911 7.15814 21.2799C7.44765 20.9611 7.59409 20.4488 7.59409 19.7581V14.2395H13.7635L17.1021 19.3589C17.3343 19.6973 17.574 20.0389 17.813 20.3738C18.0287 20.6746 18.264 20.9396 18.5123 21.1609C18.7359 21.3612 18.9756 21.5079 19.2247 21.5974C19.4812 21.6897 19.781 21.7365 20.1137 21.7365C21.0166 21.7365 21.9413 21.4601 21.9413 19.4102V14.2395H25.5658C26.1104 14.2395 26.5519 13.798 26.5519 13.2534C26.552 12.7089 26.1105 12.2673 25.5659 12.2673ZM18.9968 8.78386V12.2673H15.7844L13.4826 8.78386H18.9968ZM7.59415 4.78128L8.91891 6.81208H7.59415V4.78128ZM7.59415 12.2673V8.78392H10.2052L12.4774 12.2673H7.59415ZM18.9968 17.1294L17.0876 14.2395H18.9968V17.1294Z" fill="black"/>
</svg>
